<svg xmlns="http://www.w3.org/2000/svg" viewBox="0 0 140 29"><defs><style>.cls-1{fill:#b44335;}.cls-2{font-size:18px;fill:#fff;font-family:Papyrus;}.cls-3{letter-spacing:-0.02em;}</style></defs><title>dota-timer-logo</title><g id="Layer_1" data-name="Layer 1"><polygon class="cls-1" points="0 11 3 3 6 5 7 0 15 4 19 0 30 2 37 0 50 2 62 0 71 3 84 0 99 2 117 0 121 2 127 0 133 2 138 0 140 3 137 8 140 10 138 18 140 25 132 24 120 25 99 23 74 25 68 24 62 25 58 22 45 25 29 24 26 25 15 24 11 25 1 23 2 20 1 18 3 14 0 11"/></g><g id="text"><text class="cls-2" transform="translate(26.64 18.14)"><tspan class="cls-3">D</tspan><tspan x="14.51" y="0">ota </tspan><tspan class="cls-3" x="45.53" y="0">T</tspan><tspan x="57.67" y="0">imer</tspan></text></g></svg>